<?xml version="1.0" encoding="utf-8"?>
<svg width="128px" height="128px" viewBox="0 0 128 128" version="1.1" xmlns="http://www.w3.org/2000/svg">
  <path d="M64.4,0.6 C57.2,0.5 51.3,0.2 44.6,3.2 C38.1,6.1 31.6,8.7 25.9,12.8 C14.6,21 6,32.9 2.6,46.5 C-0.8,60.3 -0.5,75 4.6,88.3 C7.2,95.1 11.4,101.4 16.2,106.8 C20.9,112.1 26.4,115.4 32.5,119 C37.2,121.8 44.1,127.6 49.4,123.2 C54.1,119.4 51.6,111.6 51.5,106.4 C51.5,104.8 50.3,103.2 48.5,103.5 C44.1,104.4 39.9,104.7 35.6,103.2 C32.5,102.1 32.4,100.8 31.2,97.8 C30.3,95.5 29.5,92.6 27.7,90.8 C27.1,90.2 26.3,89.7 25.6,89.3 C24.9,88.9 24.2,88.5 23.5,88.1 C23,87.8 22.5,87.5 22.1,87.1 C21.1,85.9 20.8,86.3 21.2,88.1 C20.5,89 19.7,89.9 19,90.8 C21.3,89.5 25.9,91.2 27.3,93.1 C30,96.7 31.6,100.4 36.1,102.3 C39.9,103.8 44.3,103.5 48.1,102.1 C53.1,100.3 51.4,95.6 54.7,92.1 C56.2,90.6 56,86.9 53.5,86.7 C48.9,86.2 44.1,85.9 40,83.5 C36.1,81.2 32.4,77.3 30.4,73.2 C26.2,64.5 27.5,53.5 33.8,46.3 C34.8,45.1 34.9,43.6 34.4,42.2 C33.4,39.6 33.3,36.4 33.8,33.7 C34,32.7 34.7,31.4 34.6,30.4 C35.3,29.4 35.2,29.2 34.5,29.8 C33.8,30 33.8,30.1 34.3,30.3 C35.5,31.3 37,32.1 38.4,32.8 C41.2,34.2 45.3,37.7 48.2,37.9 C50.1,38 52.5,37 54.4,36.7 C56.9,36.3 59.5,36.1 62.1,36 C67,35.9 71.8,36.6 76.6,37.6 C80.7,38.5 82.6,35.5 85.9,33.5 C87.5,32.5 89.5,31.3 91.3,30.6 C92.5,30.1 92.3,29.5 93.2,30.3 C93.8,30.8 94,32.8 94.1,33.5 C94.7,36.5 94.7,39.9 93.5,42.8 C93,44.2 92.9,45.6 93.9,46.8 C97,50.4 98.7,54.5 99,59.1 C99.3,63.7 99.7,69.1 97.8,73.4 C93.6,83.3 84.3,85.6 74.6,86.6 C72.1,86.9 70.5,90.8 72.4,92.6 C77.5,97.5 75.8,106.5 75.8,112.9 C75.8,116.5 75,121.4 78.6,123.6 C83.4,126.6 91.9,120.8 95.9,118.4 C102.8,114.2 109,108.6 113.8,102.2 C132.1,78.2 130.9,41 110,19 C98.4,7.4 80.9,0.7 64.4,0.6 C60.8,0.6 58.9,7.3 62.8,7.3 C79.5,7.4 96.9,14.4 107.8,27.3 C118.8,40.4 122.8,59.1 119.4,75.7 C115.8,93.6 104.1,108.8 87.2,116.2 C85.7,116.9 82.7,118.6 81.7,117.1 C81.5,116.8 81.7,114.9 81.7,114.6 C81.7,111.3 81.6,108 81.6,104.7 C81.6,98.5 81.3,92.2 76.6,87.6 C75.9,89.6 75.1,91.6 74.4,93.6 C81,92.9 86.9,92.3 92.5,88.5 C97.4,85.2 101.3,80.4 103.4,74.9 C105.5,69.4 105.3,62.8 104.7,57 C104.1,51.2 101.9,46.2 98.1,41.8 C98.2,43.1 98.4,44.4 98.5,45.8 C100,42 100.6,38.1 100.2,34 C99.9,30.5 98.8,23.5 94.1,23.1 C92.5,23 91.2,23.9 89.8,24.6 C87.5,25.9 85,27 82.8,28.5 C81.8,29.2 80.1,31.1 78.9,31.3 C77.6,31.5 76,30.8 74.7,30.6 C71.2,30 67.6,29.7 64.1,29.7 C60.8,29.7 57.6,29.9 54.3,30.4 C52.7,30.6 51,31.3 49.3,31 C47.6,30.7 46,29.2 44.4,28.4 C42,27.2 39.8,26 37.5,24.6 C36.3,23.9 35.3,23.2 33.8,23.5 C29.3,24.3 28.1,31.2 27.6,34.7 C27.1,38.8 27.5,42.8 28.9,46.6 C29.1,45.2 29.3,43.8 29.5,42.5 C21.8,51.4 19.8,64.1 23.9,75.2 C25.8,80.4 29.7,85 34.1,88.3 C39.4,92.3 45.3,93 51.8,93.7 C51.4,91.9 51,90.1 50.6,88.3 C47.9,91 46.8,94.6 46.1,98.3 C46.8,97.4 47.6,96.5 48.3,95.6 C41.6,98.3 36.8,96.1 33.2,90.3 C31.5,87.6 30,85.6 26.8,84.8 C24.3,84.2 20.2,83.6 17.8,84.7 C15.2,86 14.6,89.1 16.3,91.4 C18.2,93.9 21.7,94.4 23.6,96.7 C25.7,99.2 25.8,103.2 27.4,106 C31.2,112.5 42.3,111.6 48.4,110.4 C47.4,109.4 46.4,108.5 45.4,107.5 C45.4,109.7 46.8,115 46,117 C46.4,118.2 45.9,118.5 44.4,117.8 C43.9,117.6 43.4,117.4 43,117.2 C41.5,116.6 40.2,115.7 38.8,114.9 C33,111.5 27,108.4 22.3,103.5 C11.3,92.2 5.8,77.3 6.2,61.6 C6.6,46.6 12.4,32.7 23.4,22.5 C28.5,17.8 34.2,14.6 40.6,11.9 C43.8,10.5 47,8.7 50.4,7.8 C54.5,6.7 58.6,7.3 62.8,7.3 C66.4,7.4 68.3,0.7 64.4,0.6 Z" fill="#000000" fill-rule="nonzero"></path>
</svg>
